<svg width="1080" height="1080" viewBox="0 0 1080 1080" fill="none" xmlns="http://www.w3.org/2000/svg">
<path d="M524.133 687.075C512.544 567.702 466.885 533.695 290 553.284C360.425 704.784 411.378 739.304 524.133 687.075Z" fill="#12B347"/>
<path d="M554.803 687.211C566.471 568.075 612.44 534.135 790.528 553.686C719.625 704.886 668.324 739.336 554.803 687.211Z" fill="#12B347"/>
<path d="M539.5 591.466C638.382 520.816 646.309 463.894 539.5 318.595C442.233 457.152 436.541 518.981 539.5 591.466Z" fill="#12B347"/>
<path d="M300.168 401.376C307.364 388.604 302.778 375.689 288.627 367.715L288.566 367.681C274.385 359.69 260.989 362.553 253.827 375.264C246.682 387.944 251.107 400.93 265.319 408.938L265.38 408.972C279.561 416.963 292.919 414.24 300.168 401.376ZM294.103 397.959C289.305 406.473 279.685 407.792 269.332 401.958L269.271 401.924C258.827 396.039 255.179 387.043 259.891 378.681C264.603 370.319 274.169 368.81 284.614 374.695L284.675 374.729C295.028 380.563 298.832 389.566 294.103 397.959Z" fill="#12B347"/>
<path d="M327.188 359.606L341.617 344.559C349.112 336.744 349.706 328.302 343.286 322.146L343.235 322.097C338.465 317.522 331.8 317.463 326.522 321.9L326.091 321.487C328.937 317.299 328.213 311.198 324.406 307.548L324.356 307.499C318.748 302.122 311.28 302.9 304.686 309.776L290.572 324.493L327.188 359.606ZM308.064 315.549C312.103 311.336 316.468 310.797 319.919 314.107L319.97 314.155C323.522 317.562 322.893 321.976 318.076 327L311.603 333.75L300.667 323.262L308.064 315.549ZM323.51 330.019C328.644 324.665 333.375 323.796 337.308 327.567L337.359 327.616C341.292 331.387 340.794 336.122 335.879 341.248L327.995 349.469L315.942 337.911L323.51 330.019Z" fill="#12B347"/>
<path d="M390.15 305.129L396.843 300.98L370.11 257.864L363.417 262.014L390.15 305.129Z" fill="#12B347"/>
<path d="M438.845 279.713L446.158 277.421L435.14 242.264L435.677 242.095L471.554 269.463L478.33 267.339L463.16 218.93L455.846 221.222L466.885 256.447L466.382 256.605L430.451 229.181L423.674 231.304L438.845 279.713Z" fill="#12B347"/>
<path d="M580.053 264.029L587.772 265.585L591.969 244.77L613.336 249.078L614.649 242.565L593.283 238.256L596.458 222.507L619.789 227.211L621.131 220.56L590.08 214.299L580.053 264.029Z" fill="#12B347"/>
<path d="M641.733 280.144L649.171 283.74L659.285 273.4L676.757 281.846L674.904 296.18L682.374 299.791L687.963 246.145L680.303 242.442L641.733 280.144ZM679.977 252.164L680.515 252.424L677.612 275.231L663.938 268.621L679.977 252.164Z" fill="#12B347"/>
<path d="M704.966 315.511L710.981 320.594L723.575 305.691L732.061 312.861L727.361 334.436L734.316 340.313L739.004 317.118C745.069 319.527 751.447 317.645 755.849 312.435L755.894 312.382C761.976 305.185 760.938 296.391 752.99 289.675L737.711 276.763L704.966 315.511ZM727.705 300.804L739.46 286.894L747.945 294.065C752.59 297.99 753.213 303.027 749.582 307.324L749.537 307.377C745.815 311.781 740.997 312.036 736.378 308.133L727.705 300.804Z" fill="#12B347"/>
<path d="M751.885 358.909L756.039 364.755L786.387 343.188L786.713 343.647L764.98 377.336L768.36 382.093L807.343 372.676L807.648 373.106L777.301 394.673L781.455 400.519L822.807 371.132L817.553 363.738L775.201 373.997L774.875 373.538L798.491 336.916L793.237 329.522L751.885 358.909Z" fill="#12B347"/>
<path d="M813.394 502.161C814.19 509.041 816.842 514.22 820.764 517.836L816.705 522.517L817.763 531.667L817.798 531.663L826.325 521.546C831.301 523.872 837.291 524.559 843.856 523.799L845.288 523.634L844.5 516.824L843.348 516.957C838.842 517.478 834.633 517.187 830.989 515.98L841.756 503.197C846.882 510.496 851.098 512.981 856.057 512.407L856.127 512.399C862.763 511.632 866.866 505.494 865.973 497.776C865.084 490.093 859.602 484.923 853.001 485.687L852.931 485.695C849.509 486.091 846.726 488.041 842.002 493.401L840.759 491.527C836.596 485.214 831.758 482.553 825.716 483.252L825.646 483.26C817.195 484.238 812.206 491.894 813.394 502.161ZM853.429 492.751L853.499 492.743C857.061 492.331 859.922 494.725 860.354 498.462C860.794 502.268 858.548 505.183 854.986 505.595L854.916 505.603C851.703 505.975 849.075 504.368 845.37 498.957C849.108 494.56 850.95 493.038 853.429 492.751ZM827.105 490.665L827.175 490.657C831.016 490.213 834.465 492.185 837.139 496.335L838.128 497.848L825.105 512.839C822.101 510.426 820.101 506.906 819.555 502.191C818.828 495.905 821.866 491.271 827.105 490.665Z" fill="#12B347"/>
<path d="M797.674 639.708L794.699 646.999L835.387 663.603L829.369 678.349L835.651 680.912L850.675 644.098L844.393 641.534L838.362 656.312L797.674 639.708Z" fill="#12B347"/>
<path d="M771.279 691.476L752.079 717.329L757.526 721.374L772.031 701.843L784.704 711.255L770.974 729.742L776.224 733.64L789.953 715.154L801.864 723.999L787.359 743.53L792.806 747.576L812.007 721.722L771.279 691.476Z" fill="#12B347"/>
<path d="M712.388 753.716C703.591 760.84 701.241 771.066 706.222 779.563L706.355 779.727L712.42 774.816L712.386 774.662C709.9 769.302 711.551 763.351 716.769 759.125C723.873 753.373 733.056 755.663 740.622 765.007L740.666 765.061C748.255 774.433 748.586 783.891 741.509 789.621C736.318 793.825 729.812 793.891 724.749 789.984L724.683 789.902L718.617 794.814L718.7 794.973C726.088 801.973 737.202 802.067 745.89 795.031C756.846 786.159 757.233 772.727 746.923 759.995L746.879 759.94C736.591 747.236 723.344 744.844 712.388 753.716Z" fill="#12B347"/>
<path d="M672.095 782.784L664.935 786.062L674.286 806.488L650.6 817.333L641.248 796.907L634.12 800.17L655.238 846.296L662.366 843.033L653.439 823.534L677.125 812.689L686.053 832.188L693.213 828.91L672.095 782.784Z" fill="#12B347"/>
<path d="M607.047 808.1L599.504 809.458L606.029 845.719L605.475 845.819L573.312 814.17L566.322 815.428L575.306 865.357L582.849 864L576.312 827.669L576.831 827.576L609.042 859.287L616.031 858.029L607.047 808.1Z" fill="#12B347"/>
<path d="M517.319 813.671C502.698 812.598 492.965 822.247 491.776 838.445L491.771 838.516C490.579 854.749 498.873 865.652 513.423 866.72C527.939 867.786 537.804 858.252 538.999 841.984L539.004 841.914C540.196 825.68 532.045 814.753 517.319 813.671ZM516.809 820.614C526.556 821.33 531.845 829.473 530.975 841.324L530.97 841.394C530.092 853.35 523.505 860.481 513.933 859.778C504.361 859.075 498.922 851.061 499.8 839.105L499.805 839.035C500.675 827.184 507.202 819.908 516.809 820.614Z" fill="#12B347"/>
<path d="M462.943 805.27L432.955 795.178L430.791 801.609L453.315 809.189L439.299 850.839L446.762 853.351L462.943 805.27Z" fill="#12B347"/>
<path d="M387.597 768.944C375.302 760.959 362.124 764.726 353.278 778.348L353.24 778.407C344.374 792.058 346.39 805.607 358.626 813.554C370.833 821.481 384.071 817.879 392.955 804.198L392.994 804.139C401.859 790.488 399.98 776.986 387.597 768.944ZM383.805 774.782C392.002 780.105 392.714 789.789 386.242 799.755L386.203 799.813C379.674 809.868 370.467 812.943 362.418 807.716C354.368 802.488 353.462 792.846 359.992 782.791L360.03 782.732C366.502 772.767 375.727 769.535 383.805 774.782Z" fill="#12B347"/>
<path d="M334.62 723.411C325.625 713.629 313.662 712.929 304.19 721.638L299.558 725.898L313.646 741.218L318.329 736.911L309.501 727.31L310.329 726.548C316.122 721.317 323.809 721.938 329.425 728.045C335.874 735.058 334.381 744.55 325.453 752.76L325.401 752.807C316.603 760.898 306.991 761.665 300.638 754.755C295.926 749.631 295.126 743.776 298.314 738.361L298.502 738.045L293.171 732.248L292.96 732.538C286.977 740.523 287.708 750.979 295.514 759.467C305.127 769.922 319.024 769.608 330.876 758.71L330.928 758.662C342.936 747.621 344.353 733.995 334.62 723.411Z" fill="#12B347"/>
<path d="M297.162 673.064L293.441 666.124L248.732 690.096L252.453 697.037L297.162 673.064Z" fill="#12B347"/>
<path d="M274.078 619.722L266.396 588.448L259.807 590.067L265.61 613.693L250.28 617.458L244.788 595.095L238.437 596.655L243.93 619.018L229.522 622.557L223.719 598.931L217.13 600.549L224.812 631.823L274.078 619.722Z" fill="#12B347"/>
<path d="M263.649 535.652C263.773 523.84 257.806 516.219 248.103 516.117L248.068 516.117C240.545 516.038 236.21 520.352 233.814 530.98L232.526 536.486C231.051 543.045 228.562 545.691 224.8 545.652L224.765 545.652C219.984 545.601 217.253 541.178 217.315 535.237C217.345 529.085 220.409 525.144 224.565 524.519L225.022 524.454L225.102 516.825L224.61 516.855C216.729 517.335 210.574 524.303 210.461 535.06C210.349 545.817 216.316 553.474 225.069 553.6L225.104 553.601C232.592 553.679 237.419 549.3 239.707 539.022L240.96 533.481C242.472 526.781 245.031 524.066 248.934 524.107L248.969 524.107C253.679 524.156 256.865 528.795 256.798 535.264C256.727 542.049 253.722 546.904 249.113 547.278L248.726 547.309L248.645 555.043L249.102 555.012C257.652 554.399 263.529 547.112 263.649 535.652Z" fill="#12B347"/>
</svg>
